<?xml version="1.0" standalone="no"?>
<!DOCTYPE svg PUBLIC "-//W3C//DTD SVG 20010904//EN"
 "http://www.w3.org/TR/2001/REC-SVG-20010904/DTD/svg10.dtd">
<svg version="1.0" xmlns="http://www.w3.org/2000/svg"
 width="1280.000000pt" height="1280.000000pt" viewBox="0 0 1280.000000 1280.000000"
 preserveAspectRatio="xMidYMid meet">
<metadata>
Created by potrace 1.15, written by Peter Selinger 2001-2017
</metadata>
<g transform="translate(0.000000,1280.000000) scale(0.100000,-0.100000)"
fill="#000000" stroke="none">
<path d="M6040 11954 c-412 -36 -713 -85 -1040 -170 -1966 -512 -3504 -2065
-3999 -4039 -57 -229 -106 -509 -138 -790 -14 -128 -18 -240 -18 -560 0 -429
8 -543 61 -880 159 -1002 574 -1908 1240 -2710 135 -162 488 -517 654 -657
837 -705 1823 -1141 2890 -1278 451 -57 963 -59 1400 -4 1037 130 1979 528
2796 1180 357 285 708 648 986 1019 1134 1514 1416 3519 745 5300 -217 577
-536 1119 -953 1620 -135 163 -489 517 -654 657 -777 653 -1684 1076 -2670
1243 -327 55 -470 67 -875 70 -209 1 -400 1 -425 -1z m2758 -3071 c2 -13 -276
-739 -619 -1615 -342 -876 -677 -1735 -745 -1908 -67 -173 -189 -484 -269
-690 -81 -206 -198 -505 -260 -665 -459 -1176 -418 -1075 -438 -1075 -28 1
-40 27 -116 250 -43 129 -116 343 -161 475 -45 132 -117 344 -160 470 -228
671 -381 1121 -413 1212 -56 160 -127 251 -241 310 -27 14 -466 175 -975 360
-509 184 -1040 376 -1180 427 -148 53 -259 99 -265 109 -8 12 -7 20 4 31 8 8
301 129 650 269 349 140 955 383 1345 540 391 157 1243 499 1895 760 652 262
1347 541 1545 621 198 80 369 144 380 143 12 -1 21 -11 23 -24z"/>
</g>
</svg>
